REM GENRE "Black Metal"
REM DATE 2007
REM DISCID 5609D607
REM COMMENT "ExactAudioCopy v0.99pb5"
PERFORMER "Amystery"
TITLE "Extermination followed by cryptic silence"
FILE "Amystery - Extermination followed by cryptic silence.flac" WAVE
  TRACK 01 AUDIO
    TITLE "Voices From the Crypts"
    PERFORMER "Amystery"
    INDEX 01 00:00:00
  TRACK 02 AUDIO
    TITLE "Deep In The Abyss of a Tortured Soul"
    PERFORMER "Amystery"
    INDEX 01 07:06:44
  TRACK 03 AUDIO
    TITLE "Metamorphose"
    PERFORMER "Amystery"
    INDEX 01 13:10:06
  TRACK 04 AUDIO
    TITLE "Shade Realm"
    PERFORMER "Amystery"
    INDEX 01 19:26:53
  TRACK 05 AUDIO
    TITLE "Thy Spiral"
    PERFORMER "Amystery"
    INDEX 01 25:04:29
  TRACK 06 AUDIO
    TITLE "Praised Darkness"
    PERFORMER "Amystery"
    INDEX 01 29:49:60
  TRACK 07 AUDIO
    TITLE "Icy Kingdom"
    PERFORMER "Amystery"
    INDEX 01 36:49:01
